REM DIRINDEX 1\2,1\3,1\4
REM DIRNAME folder01,folder02,folder03,folder04
TITLE ""
FILE "144 144_TOEFL_3900.mp3" MP3
  TRACK 01 AUDIO
    TITLE "2:cjc151_6265"
    INDEX 01 00:00:00
  TRACK 02 AUDIO
    TITLE "0:"
    INDEX 01 00:02:36
  TRACK 03 AUDIO
    TITLE "3:cjc151_6266"
    INDEX 01 00:04:15
  TRACK 04 AUDIO
    TITLE "0:"
    INDEX 01 00:07:33
  TRACK 05 AUDIO
    TITLE "2:cjc151_6267"
    INDEX 01 00:09:12
  TRACK 06 AUDIO
    TITLE "0:"
    INDEX 01 00:10:35
  TRACK 07 AUDIO
    TITLE "3:cjc151_6268"
    INDEX 01 00:12:14
  TRACK 08 AUDIO
    TITLE "0:"
    INDEX 01 00:16:04
  TRACK 09 AUDIO
    TITLE "2:cjc151_6269"
    INDEX 01 00:17:59
  TRACK 10 AUDIO
    TITLE "0:"
    INDEX 01 00:18:68
  TRACK 11 AUDIO
    TITLE "3:cjc151_6270"
    INDEX 01 00:20:47
  TRACK 12 AUDIO
    TITLE "0:"
    INDEX 01 00:24:71
  TRACK 13 AUDIO
    TITLE "2:cjc151_6271"
    INDEX 01 00:26:50
  TRACK 14 AUDIO
    TITLE "0:"
    INDEX 01 00:27:61
  TRACK 15 AUDIO
    TITLE "3:cjc151_6272"
    INDEX 01 00:29:36
  TRACK 16 AUDIO
    TITLE "0:"
    INDEX 01 00:33:38
  TRACK 17 AUDIO
    TITLE "2:cjc151_6273"
    INDEX 01 00:35:17
  TRACK 18 AUDIO
    TITLE "0:"
    INDEX 01 00:36:23
  TRACK 19 AUDIO
    TITLE "3:cjc151_6274"
    INDEX 01 00:38:02
  TRACK 20 AUDIO
    TITLE "0:"
    INDEX 01 00:42:37
  TRACK 21 AUDIO
    TITLE "2:cjc151_6275"
    INDEX 01 00:44:16
  TRACK 22 AUDIO
    TITLE "0:"
    INDEX 01 00:45:45
  TRACK 23 AUDIO
    TITLE "3:cjc151_6276"
    INDEX 01 00:47:19
  TRACK 24 AUDIO
    TITLE "0:"
    INDEX 01 00:51:65
  TRACK 25 AUDIO
    TITLE "2:cjc151_6277"
    INDEX 01 00:53:45
  TRACK 26 AUDIO
    TITLE "0:"
    INDEX 01 00:55:03
  TRACK 27 AUDIO
    TITLE "3:cjc151_6278"
    INDEX 01 00:56:55
  TRACK 28 AUDIO
    TITLE "0:"
    INDEX 01 01:01:09
  TRACK 29 AUDIO
    TITLE "2:cjc151_6279"
    INDEX 01 01:02:61
  TRACK 30 AUDIO
    TITLE "0:"
    INDEX 01 01:04:00
  TRACK 31 AUDIO
    TITLE "3:cjc151_6280"
    INDEX 01 01:05:52
  TRACK 32 AUDIO
    TITLE "0:"
    INDEX 01 01:09:52
  TRACK 33 AUDIO
    TITLE "2:cjc151_6281"
    INDEX 01 01:11:33
  TRACK 34 AUDIO
    TITLE "0:"
    INDEX 01 01:12:44
  TRACK 35 AUDIO
    TITLE "3:cjc151_6282"
    INDEX 01 01:14:27
  TRACK 36 AUDIO
    TITLE "0:"
    INDEX 01 01:19:34
  TRACK 37 AUDIO
    TITLE "2:cjc151_6283"
    INDEX 01 01:21:20
  TRACK 38 AUDIO
    TITLE "0:"
    INDEX 01 01:22:29
  TRACK 39 AUDIO
    TITLE "3:cjc151_6284"
    INDEX 01 01:24:10
  TRACK 40 AUDIO
    TITLE "0:"
    INDEX 01 01:29:50
  TRACK 41 AUDIO
    TITLE "2:cjc151_6285"
    INDEX 01 01:31:30
  TRACK 42 AUDIO
    TITLE "0:"
    INDEX 01 01:32:37
  TRACK 43 AUDIO
    TITLE "3:cjc151_6286"
    INDEX 01 01:34:16
  TRACK 44 AUDIO
    TITLE "0:"
    INDEX 01 01:39:14
  TRACK 45 AUDIO
    TITLE "2:cjc151_6287"
    INDEX 01 01:40:68
  TRACK 46 AUDIO
    TITLE "0:"
    INDEX 01 01:42:20
  TRACK 47 AUDIO
    TITLE "3:cjc151_6288"
    INDEX 01 01:43:72
  TRACK 48 AUDIO
    TITLE "0:"
    INDEX 01 01:48:18
  TRACK 49 AUDIO
    TITLE "2:cjc151_6289"
    INDEX 01 01:49:73
  TRACK 50 AUDIO
    TITLE "0:"
    INDEX 01 01:51:07
  TRACK 51 AUDIO
    TITLE "3:cjc151_6290"
    INDEX 01 01:52:59
  TRACK 52 AUDIO
    TITLE "0:"
    INDEX 01 01:56:51
  TRACK 53 AUDIO
    TITLE "2:cjc151_6291"
    INDEX 01 01:58:30
  TRACK 54 AUDIO
    TITLE "0:"
    INDEX 01 01:59:40
  TRACK 55 AUDIO
    TITLE "3:cjc151_6292"
    INDEX 01 02:01:17
  TRACK 56 AUDIO
    TITLE "0:"
    INDEX 01 02:05:15
  TRACK 57 AUDIO
    TITLE "2:cjc151_6293"
    INDEX 01 02:06:69
  TRACK 58 AUDIO
    TITLE "0:"
    INDEX 01 02:08:01
  TRACK 59 AUDIO
    TITLE "3:cjc151_6294"
    INDEX 01 02:09:54
  TRACK 60 AUDIO
    TITLE "0:"
    INDEX 01 02:13:56
  TRACK 61 AUDIO
    TITLE "2:cjc151_6295"
    INDEX 01 02:15:35
  TRACK 62 AUDIO
    TITLE "0:"
    INDEX 01 02:16:50
  TRACK 63 AUDIO
    TITLE "3:cjc151_6296"
    INDEX 01 02:18:29
  TRACK 64 AUDIO
    TITLE "0:"
    INDEX 01 02:22:07
  TRACK 65 AUDIO
    TITLE "2:cjc151_6297"
    INDEX 01 02:23:62
  TRACK 66 AUDIO
    TITLE "0:"
    INDEX 01 02:24:71
  TRACK 67 AUDIO
    TITLE "3:cjc151_6298"
    INDEX 01 02:26:50
  TRACK 68 AUDIO
    TITLE "0:"
    INDEX 01 02:31:16
  TRACK 69 AUDIO
    TITLE "2:cjc151_6299"
    INDEX 01 02:32:71
  TRACK 70 AUDIO
    TITLE "0:"
    INDEX 01 02:34:07
  TRACK 71 AUDIO
    TITLE "3:cjc151_6300"
    INDEX 01 02:35:59
  TRACK 72 AUDIO
    TITLE "0:"
    INDEX 01 02:39:41
  TRACK 73 AUDIO
    TITLE "2:cjc151_6301"
    INDEX 01 02:41:22
  TRACK 74 AUDIO
    TITLE "0:"
    INDEX 01 02:42:53
  TRACK 75 AUDIO
    TITLE "3:cjc151_6302"
    INDEX 01 02:44:29
  TRACK 76 AUDIO
    TITLE "0:"
    INDEX 01 02:49:04
  TRACK 77 AUDIO
    TITLE "2:cjc151_6303"
    INDEX 01 02:50:57
  TRACK 78 AUDIO
    TITLE "0:"
    INDEX 01 02:51:64
  TRACK 79 AUDIO
    TITLE "3:cjc151_6304"
    INDEX 01 02:53:41
  TRACK 80 AUDIO
    TITLE "0:"
    INDEX 01 02:57:20
  TRACK 81 AUDIO
    TITLE "2:cjc151_6305"
    INDEX 01 02:58:72
  TRACK 82 AUDIO
    TITLE "0:"
    INDEX 01 03:00:02
  TRACK 83 AUDIO
    TITLE "3:cjc151_6306"
    INDEX 01 03:01:57
  TRACK 84 AUDIO
    TITLE "0:"
    INDEX 01 03:07:00
  TRACK 85 AUDIO
    TITLE "2:cjc151_6307"
    INDEX 01 03:08:57
  TRACK 86 AUDIO
    TITLE "0:"
    INDEX 01 03:09:70
  TRACK 87 AUDIO
    TITLE "3:cjc151_6308"
    INDEX 01 03:11:49
  TRACK 88 AUDIO
    TITLE "0:"
    INDEX 01 03:16:54
